<svg width="105" height="97" viewBox="0 0 105 97" fill="none" xmlns="http://www.w3.org/2000/svg">
<path fill-rule="evenodd" clip-rule="evenodd" d="M52.5 0C23.4937 0 0 21.7037 0 48.5C0 69.9612 15.0281 88.0881 35.8969 94.5144C38.5219 94.9387 39.5062 93.4837 39.5062 92.2106C39.5062 91.0587 39.4406 87.2394 39.4406 83.1775C26.25 85.4206 22.8375 80.2069 21.7875 77.4787C21.1969 76.0844 18.6375 71.78 16.4062 70.6281C14.5688 69.7187 11.9437 67.4756 16.3406 67.415C20.475 67.3544 23.4281 70.9312 24.4125 72.3862C29.1375 79.7219 36.6844 77.6606 39.7031 76.3875C40.1625 73.235 41.5406 71.1131 43.05 69.9006C31.3688 68.6881 19.1625 64.505 19.1625 45.9537C19.1625 40.6794 21.1969 36.3144 24.5438 32.9194C24.0188 31.7069 22.1812 26.7356 25.0688 20.0669C25.0688 20.0669 29.4656 18.7938 39.5062 25.0381C43.7062 23.9469 48.1687 23.4012 52.6312 23.4012C57.0937 23.4012 61.5562 23.9469 65.7562 25.0381C75.7969 18.7331 80.1937 20.0669 80.1937 20.0669C83.0812 26.7356 81.2438 31.7069 80.7188 32.9194C84.0656 36.3144 86.1 40.6187 86.1 45.9537C86.1 64.5656 73.8281 68.6881 62.1469 69.9006C64.05 71.4162 65.6906 74.3262 65.6906 78.8731C65.6906 85.36 65.625 90.5737 65.625 92.2106C65.625 93.4837 66.6094 94.9994 69.2344 94.5144C79.6564 91.2637 88.7127 85.0758 95.1285 76.8214C101.544 68.5671 104.997 58.6619 105 48.5C105 21.7037 81.5063 0 52.5 0Z" fill="#FFFEFE"/>
</svg>
