<svg width="39" height="37" viewBox="0 0 39 37" fill="none" xmlns="http://www.w3.org/2000/svg">
<path d="M20.4454 2.96606C10.6926 2.96606 2.78467 10.4375 2.78467 19.6521C2.78467 28.8667 10.6926 36.3382 20.4454 36.3382C30.1982 36.3382 38.1061 28.8667 38.1061 19.6521C38.1061 10.4375 30.1982 2.96606 20.4454 2.96606ZM28.9328 15.5439C28.9446 15.719 28.9446 15.9015 28.9446 16.0803C28.9446 21.5479 24.5373 27.8462 16.4836 27.8462C14 27.8462 11.6978 27.1646 9.75829 25.9913C10.1131 26.0286 10.4521 26.0435 10.8148 26.0435C12.8647 26.0435 14.749 25.388 16.251 24.278C14.3272 24.2408 12.7109 23.0489 12.159 21.4101C12.8331 21.5032 13.4402 21.5032 14.134 21.3356C13.1435 21.1455 12.2532 20.6372 11.6143 19.8971C10.9754 19.1571 10.6275 18.2308 10.6295 17.2758V17.2237C11.209 17.5328 11.891 17.7228 12.6045 17.7489C12.0047 17.3712 11.5128 16.8595 11.1724 16.2592C10.832 15.6588 10.6536 14.9884 10.6532 14.3074C10.6532 13.5364 10.866 12.8324 11.2484 12.2216C12.3479 13.5004 13.7199 14.5463 15.2752 15.2913C16.8305 16.0363 18.5343 16.4637 20.2759 16.5458C19.657 13.7338 21.8803 11.4581 24.5531 11.4581C25.8146 11.4581 26.9499 11.9572 27.7501 12.7617C28.7396 12.5866 29.6857 12.2365 30.5293 11.7672C30.2021 12.7244 29.5162 13.5327 28.6056 14.0429C29.4886 13.9535 30.3401 13.7226 31.1285 13.3986C30.5333 14.2254 29.7882 14.9592 28.9328 15.5439V15.5439Z" fill="#666666"/>
</svg>
