<svg width="39" height="36" viewBox="0 0 39 36" fill="none" xmlns="http://www.w3.org/2000/svg">
<path d="M20.7591 2.42297C11.0063 2.42297 3.09839 9.89445 3.09839 19.109C3.09839 28.3236 11.0063 35.7951 20.7591 35.7951C30.5119 35.7951 38.4198 28.3236 38.4198 19.109C38.4198 9.89445 30.5119 2.42297 20.7591 2.42297ZM29.2465 15.0008C29.2583 15.1759 29.2583 15.3584 29.2583 15.5372C29.2583 21.0048 24.851 27.3031 16.7973 27.3031C14.3137 27.3031 12.0115 26.6215 10.072 25.4482C10.4268 25.4855 10.7658 25.5004 11.1285 25.5004C13.1784 25.5004 15.0627 24.8449 16.5647 23.7349C14.6409 23.6977 13.0247 22.5058 12.4728 20.867C13.1469 20.9601 13.754 20.9601 14.4478 20.7925C13.4572 20.6024 12.5669 20.0941 11.928 19.354C11.2892 18.614 10.9412 17.6878 10.9432 16.7328V16.6806C11.5227 16.9897 12.2047 17.1797 12.9182 17.2058C12.3184 16.8281 11.8265 16.3164 11.4861 15.7161C11.1457 15.1157 10.9674 14.4453 10.9669 13.7643C10.9669 12.9933 11.1797 12.2893 11.5621 11.6785C12.6616 12.9573 14.0336 14.0032 15.5889 14.7482C17.1442 15.4932 18.848 15.9206 20.5896 16.0027C19.9707 13.1907 22.194 10.915 24.8668 10.915C26.1283 10.915 27.2636 11.4141 28.0639 12.2186C29.0533 12.0435 29.9995 11.6934 30.8431 11.2241C30.5159 12.1813 29.8299 12.9896 28.9193 13.4998C29.8023 13.4104 30.6538 13.1795 31.4423 12.8555C30.847 13.6823 30.1019 14.4161 29.2465 15.0008V15.0008Z" fill="#A7A7A7"/>
</svg>
