<svg width="34" height="17" viewBox="0 0 34 17" fill="none" xmlns="http://www.w3.org/2000/svg">
<g clip-path="url(#clip0_128_253)">
<path d="M11.5019 8.96667C11.1393 8.96667 10.7915 8.89854 10.535 8.77727C10.2786 8.65599 10.1345 8.49151 10.1345 8.32C10.1345 8.1485 10.2786 7.98401 10.535 7.86274C10.7915 7.74147 11.1393 7.67334 11.5019 7.67334C11.8646 7.67334 12.2124 7.74147 12.4689 7.86274C12.7253 7.98401 12.8694 8.1485 12.8694 8.32C12.8694 8.49151 12.7253 8.65599 12.4689 8.77727C12.2124 8.89854 11.8646 8.96667 11.5019 8.96667V8.96667ZM11.5019 11.5533C11.1393 11.5533 10.7915 11.4852 10.535 11.3639C10.2786 11.2427 10.1345 11.0782 10.1345 10.9067C10.1345 10.7352 10.2786 10.5707 10.535 10.4494C10.7915 10.3281 11.1393 10.26 11.5019 10.26C11.8646 10.26 12.2124 10.3281 12.4689 10.4494C12.7253 10.5707 12.8694 10.7352 12.8694 10.9067C12.8694 11.0782 12.7253 11.2427 12.4689 11.3639C12.2124 11.4852 11.8646 11.5533 11.5019 11.5533V11.5533ZM15.6042 10.9067C15.6042 11.0782 15.7483 11.2427 16.0047 11.3639C16.2612 11.4852 16.609 11.5533 16.9717 11.5533C17.3343 11.5533 17.6821 11.4852 17.9386 11.3639C18.195 11.2427 18.3391 11.0782 18.3391 10.9067C18.3391 10.7352 18.195 10.5707 17.9386 10.4494C17.6821 10.3281 17.3343 10.26 16.9717 10.26C16.609 10.26 16.2612 10.3281 16.0047 10.4494C15.7483 10.5707 15.6042 10.7352 15.6042 10.9067ZM22.4414 11.5533C22.0787 11.5533 21.7309 11.4852 21.4744 11.3639C21.218 11.2427 21.0739 11.0782 21.0739 10.9067C21.0739 10.7352 21.218 10.5707 21.4744 10.4494C21.7309 10.3281 22.0787 10.26 22.4414 10.26C22.804 10.26 23.1518 10.3281 23.4083 10.4494C23.6647 10.5707 23.8088 10.7352 23.8088 10.9067C23.8088 11.0782 23.6647 11.2427 23.4083 11.3639C23.1518 11.4852 22.804 11.5533 22.4414 11.5533ZM15.6042 8.32C15.6042 8.49151 15.7483 8.65599 16.0047 8.77727C16.2612 8.89854 16.609 8.96667 16.9717 8.96667C17.3343 8.96667 17.6821 8.89854 17.9386 8.77727C18.195 8.65599 18.3391 8.49151 18.3391 8.32C18.3391 8.1485 18.195 7.98401 17.9386 7.86274C17.6821 7.74147 17.3343 7.67334 16.9717 7.67334C16.609 7.67334 16.2612 7.74147 16.0047 7.86274C15.7483 7.98401 15.6042 8.1485 15.6042 8.32ZM22.4414 8.96667C22.0787 8.96667 21.7309 8.89854 21.4744 8.77727C21.218 8.65599 21.0739 8.49151 21.0739 8.32C21.0739 8.1485 21.218 7.98401 21.4744 7.86274C21.7309 7.74147 22.0787 7.67334 22.4414 7.67334C22.804 7.67334 23.1518 7.74147 23.4083 7.86274C23.6647 7.98401 23.8088 8.1485 23.8088 8.32C23.8088 8.49151 23.6647 8.65599 23.4083 8.77727C23.1518 8.89854 22.804 8.96667 22.4414 8.96667ZM11.5019 5.08667C11.1393 5.08667 10.7915 5.1548 10.535 5.27607C10.2786 5.39735 10.1345 5.56183 10.1345 5.73334C10.1345 5.90484 10.2786 6.06933 10.535 6.1906C10.7915 6.31187 11.1393 6.38 11.5019 6.38H22.4414C22.804 6.38 23.1518 6.31187 23.4083 6.1906C23.6647 6.06933 23.8088 5.90484 23.8088 5.73334C23.8088 5.56183 23.6647 5.39735 23.4083 5.27607C23.1518 5.1548 22.804 5.08667 22.4414 5.08667H11.5019Z" fill="#A7A7A7"/>
<path fill-rule="evenodd" clip-rule="evenodd" d="M8.76707 2.5C7.67908 2.5 6.63565 2.70439 5.86632 3.06821C5.097 3.43203 4.66479 3.92548 4.66479 4.44V12.2C4.66479 12.7145 5.097 13.208 5.86632 13.5718C6.63565 13.9356 7.67908 14.14 8.76707 14.14H25.1762C26.2642 14.14 27.3076 13.9356 28.0769 13.5718C28.8463 13.208 29.2785 12.7145 29.2785 12.2V4.44C29.2785 3.92548 28.8463 3.43203 28.0769 3.06821C27.3076 2.70439 26.2642 2.5 25.1762 2.5H8.76707ZM25.1762 3.79333H8.76707C8.40441 3.79333 8.0566 3.86146 7.80016 3.98274C7.54372 4.10401 7.39965 4.26849 7.39965 4.44V12.2C7.39965 12.3715 7.54372 12.536 7.80016 12.6573C8.0566 12.7785 8.40441 12.8467 8.76707 12.8467H25.1762C25.5389 12.8467 25.8867 12.7785 26.1431 12.6573C26.3996 12.536 26.5436 12.3715 26.5436 12.2V4.44C26.5436 4.26849 26.3996 4.10401 26.1431 3.98274C25.8867 3.86146 25.5389 3.79333 25.1762 3.79333Z" fill="#A7A7A7"/>
</g>
<defs>
<clipPath id="clip0_128_253">
<rect width="32.8182" height="15.52" fill="white" transform="translate(0.5625 0.559998)"/>
</clipPath>
</defs>
</svg>
