<svg width="36" height="34" viewBox="0 0 36 34" fill="none" xmlns="http://www.w3.org/2000/svg">
<g clip-path="url(#clip0_126_193)">
<path d="M18.1069 0.772461C8.74317 0.772461 1.15259 7.94413 1.15259 16.7911C1.15259 25.638 8.74317 32.8097 18.1069 32.8097C27.4706 32.8097 35.0612 25.638 35.0612 16.7911C35.0612 7.94413 27.4706 0.772461 18.1069 0.772461ZM13.9566 23.4305H10.5234V12.9917H13.9566V23.4305ZM12.2188 11.7102C11.1344 11.7102 10.4333 10.9843 10.4333 10.0866C10.4333 9.17055 11.1556 8.4664 12.2629 8.4664C13.3703 8.4664 14.0484 9.17055 14.0696 10.0866C14.0696 10.9843 13.3703 11.7102 12.2188 11.7102ZM26.4957 23.4305H23.0625V17.6454C23.0625 16.2988 22.5644 15.3844 21.3229 15.3844C20.3745 15.3844 19.8111 16.0035 19.5621 16.5992C19.4703 16.8111 19.4473 17.1114 19.4473 17.4101V23.4288H16.0123V16.3205C16.0123 15.0173 15.9682 13.9277 15.9222 12.99H18.9051L19.0623 14.44H19.1312C19.5833 13.7592 20.6906 12.7547 22.5433 12.7547C24.8021 12.7547 26.4957 14.1847 26.4957 17.2583V23.4305V23.4305Z" fill="#666666"/>
</g>
<defs>
<clipPath id="clip0_126_193">
<rect width="35.3214" height="33.3721" fill="white" transform="translate(0.446045 0.10498)"/>
</clipPath>
</defs>
</svg>
