<svg width="37" height="34" viewBox="0 0 37 34" fill="none" xmlns="http://www.w3.org/2000/svg">
<g clip-path="url(#clip0_14_33)">
<path d="M18.4208 1.22937C9.05713 1.22937 1.46655 8.40104 1.46655 17.248C1.46655 26.0949 9.05713 33.2666 18.4208 33.2666C27.7846 33.2666 35.3751 26.0949 35.3751 17.248C35.3751 8.40104 27.7846 1.22937 18.4208 1.22937ZM14.2706 23.8874H10.8373V13.4486H14.2706V23.8874ZM12.5328 12.1671C11.4484 12.1671 10.7473 11.4412 10.7473 10.5435C10.7473 9.62746 11.4696 8.92331 12.5769 8.92331C13.6842 8.92331 14.3624 9.62746 14.3836 10.5435C14.3836 11.4412 13.6842 12.1671 12.5328 12.1671ZM26.8097 23.8874H23.3764V18.1023C23.3764 16.7557 22.8784 15.8413 21.6369 15.8413C20.6885 15.8413 20.1251 16.4604 19.8761 17.0561C19.7843 17.268 19.7613 17.5684 19.7613 17.867V23.8857H16.3263V16.7774C16.3263 15.4743 16.2821 14.3847 16.2362 13.4469H19.2191L19.3763 14.8969H19.4452C19.8973 14.2161 21.0046 13.2116 22.8572 13.2116C25.116 13.2116 26.8097 14.6416 26.8097 17.7152V23.8874V23.8874Z" fill="#A7A7A7"/>
</g>
<defs>
<clipPath id="clip0_14_33">
<rect width="35.3214" height="33.3721" fill="white" transform="translate(0.76001 0.56189)"/>
</clipPath>
</defs>
</svg>
