<svg width="123" height="116" viewBox="0 0 123 116" fill="none" xmlns="http://www.w3.org/2000/svg">
<path d="M83.6016 63.4375V58.9063H88.4062V55.2813H83.6016V50.75H78.7969V55.2813H73.9922V58.9063H78.7969V63.4375H83.6016ZM100.898 50.75H97.0547V55.2813H91.2891V58.9063H97.0547V63.4375H100.898V58.9063H105.703V55.2813H100.898V50.75ZM111.949 29.2719C111.373 28.275 110.604 27.3688 109.739 26.9156L63.518 1.7219C62.7492 1.26877 61.6922 1.08752 60.5391 1.08752C59.3859 1.08752 58.3289 1.3594 57.5602 1.7219L10.9547 26.9156C9.32109 27.8219 7.6875 30.0875 7.6875 31.8094V82.2875C7.6875 83.2844 8.36016 84.3719 9.03281 85.3688L9.12891 85.4594C9.60938 86.1844 10.3781 86.8188 11.0508 87.1813L57.4641 112.466C58.2328 112.919 59.3859 113.1 60.5391 113.1C61.6922 113.1 62.7492 112.828 63.518 112.466L109.162 87.1813C110.796 86.275 111.469 84.0094 111.469 82.2875V31.8094C111.469 31.0844 111.853 30.1781 111.469 29.4531L111.949 29.2719ZM107.913 31.175C107.913 31.4469 107.625 31.6281 107.625 31.8094V82.2875C107.625 83.0125 107.433 83.8282 107.241 84.1L61.5 109.294C61.4039 109.384 61.0195 109.475 60.443 109.475C59.8664 109.475 59.482 109.384 59.3859 109.294L13.0688 84.1C13.0688 84.1 12.9727 84.0094 12.8766 84.0094L12.3 83.4657C11.9156 82.8313 12.4922 82.4688 11.5312 82.3782V31.9C12.4922 31.4469 12.3961 30.3594 12.8766 30.1781L59.2898 4.89377C59.3859 4.89377 59.8664 4.71252 60.443 4.71252C61.0195 4.71252 61.4039 4.80315 61.5 4.89377L107.625 29.9969L108.009 30.8125C108.105 30.9031 107.913 31.0844 107.913 31.175V31.175ZM60.5391 79.2969C47.5664 79.2969 36.9961 69.3281 36.9961 57.0938C36.9961 44.8594 47.5664 34.8906 60.5391 34.8906C69.2836 34.8906 76.9711 39.4219 81.007 46.2188L93.4992 39.4219C86.9648 28.6375 74.6648 21.2969 60.5391 21.2969C39.5906 21.2969 22.582 37.3375 22.582 57.0938C22.582 76.85 39.5906 92.8907 60.5391 92.8907C74.5688 92.8907 86.8687 85.6406 93.4031 74.9469L81.007 68.0594C76.9711 74.7657 69.2836 79.2969 60.5391 79.2969Z" fill="#9C033A"/>
</svg>
