<svg width="189" height="179" viewBox="0 0 189 179" fill="none" xmlns="http://www.w3.org/2000/svg">
<path d="M93.6008 17.1281C87.3668 17.156 81.4162 17.6581 76.1774 18.5363C60.7473 21.1178 57.9477 26.5214 57.9477 36.488V49.6487H94.4085V54.0356H44.263C33.6672 54.0356 24.3884 60.0671 21.4855 71.5455C18.1367 84.6978 17.989 92.9066 21.4855 106.641C24.0769 116.865 30.2666 124.148 40.8639 124.148H53.4014V108.371C53.4014 96.9718 63.8127 86.9185 76.1789 86.9185H112.598C122.736 86.9185 130.828 79.0117 130.828 69.3709V36.4894C130.828 27.1297 122.491 20.0997 112.598 18.5377C106.332 17.5504 99.8334 17.1015 93.6008 17.1281V17.1281ZM73.8828 27.7128C77.648 27.7128 80.7252 30.6733 80.7252 34.3149C80.7252 37.941 77.6495 40.8735 73.8828 40.8735C70.1028 40.8735 67.0419 37.941 67.0419 34.3149C67.0404 30.6733 70.1028 27.7128 73.8828 27.7128V27.7128Z" fill="url(#paint0_linear_103_206)"/>
<path d="M135.374 54.0356V69.3709C135.374 81.2576 124.731 91.2634 112.597 91.2634H76.1774C66.2017 91.2634 57.9478 99.3506 57.9478 108.812V141.697C57.9478 151.054 66.5384 156.559 76.1774 159.243C87.7182 162.455 98.7865 163.037 112.597 159.243C121.775 156.724 130.826 151.659 130.826 141.697V128.535H94.4085V124.146H149.059C159.655 124.146 163.606 117.147 167.292 106.639C171.098 95.8224 170.934 85.4194 167.292 71.5441C164.672 61.5522 159.671 54.0342 149.059 54.0342H135.374V54.0356ZM114.89 137.308C118.671 137.308 121.732 140.241 121.732 143.87C121.732 147.509 118.67 150.469 114.89 150.469C111.125 150.469 108.049 147.509 108.049 143.87C108.049 140.241 111.125 137.308 114.89 137.308V137.308Z" fill="url(#paint1_linear_103_206)"/>
<path opacity="0.444" d="M143.683 167.249C143.683 172.204 121.806 176.221 94.8219 176.221C67.8362 176.221 45.9595 172.204 45.9595 167.249C45.9595 162.293 67.8347 158.275 94.8219 158.275C121.806 158.275 143.683 162.291 143.683 167.249Z" fill="url(#paint2_radial_103_206)"/>
<defs>
<linearGradient id="paint0_linear_103_206" x1="15.2631" y1="21.2432" x2="95.4797" y2="93.4732" gradientUnits="userSpaceOnUse">
<stop stop-color="#5A9FD4"/>
<stop offset="1" stop-color="#306998"/>
</linearGradient>
<linearGradient id="paint1_linear_103_206" x1="130.999" y1="131.387" x2="102.975" y2="89.8913" gradientUnits="userSpaceOnUse">
<stop stop-color="#FFD43B"/>
<stop offset="1" stop-color="#FFE873"/>
</linearGradient>
<radialGradient id="paint2_radial_103_206" cx="0" cy="0" r="1" gradientUnits="userSpaceOnUse" gradientTransform="translate(94.6244 166.992) rotate(-90) scale(8.97561 41.6595)">
<stop stop-color="#B8B8B8" stop-opacity="0.498"/>
<stop offset="1" stop-color="#7F7F7F" stop-opacity="0"/>
</radialGradient>
</defs>
</svg>
