<svg width="125" height="117" viewBox="0 0 125 117" fill="none" xmlns="http://www.w3.org/2000/svg">
<g clip-path="url(#clip0_14_41)">
<path d="M122.643 53.2872L68.0664 2.20668C64.9253 -0.735233 59.8276 -0.735233 56.6826 2.20668L45.3496 12.8144L59.7261 26.2707C63.0669 25.2141 66.898 25.9229 69.561 28.4156C72.2368 30.9242 72.9888 34.5407 71.8325 37.6778L85.6875 50.6465C89.0396 49.5656 92.9072 50.2649 95.5845 52.7749C99.3262 56.2758 99.3262 61.9498 95.5845 65.4529C91.8418 68.9565 85.7798 68.9565 82.0352 65.4529C79.2207 62.8159 78.5254 58.9471 79.9502 55.7017L67.0293 43.6078L67.0278 75.4341C67.9645 75.8675 68.82 76.4401 69.561 77.1296C73.3027 80.6305 73.3027 86.305 69.561 89.8109C65.8184 93.3127 59.7534 93.3127 56.0161 89.8109C52.2744 86.305 52.2744 80.631 56.0161 77.1301C56.9128 76.2904 57.9784 75.6254 59.1514 75.1735V43.0506C57.9767 42.6018 56.9105 41.9364 56.0161 41.0941C53.1812 38.4442 52.4995 34.5508 53.9522 31.2926L39.7803 18.0264L2.3584 53.0509C-0.786133 55.9956 -0.786133 60.7675 2.3584 63.7098L56.9355 114.791C60.0776 117.734 65.1743 117.734 68.3203 114.791L122.642 63.947C125.786 61.0037 125.786 56.2291 122.642 53.2872" fill="#DE4C36"/>
</g>
<defs>
<clipPath id="clip0_14_41">
<rect width="125" height="117" fill="white"/>
</clipPath>
</defs>
</svg>
