<svg width="133" height="112" viewBox="0 0 133 112" fill="none" xmlns="http://www.w3.org/2000/svg">
<g clip-path="url(#clip0_14_43)">
<path d="M109.349 36.2645C107.934 35.8053 106.506 35.3799 105.068 34.9887C105.31 34.0554 105.532 33.1334 105.73 32.2275C108.97 17.3527 106.852 5.36916 99.6159 1.42362C92.6782 -2.35884 81.332 1.58523 69.8731 11.0153C68.7438 11.9464 67.6396 12.9042 66.5614 13.888C65.8396 13.2338 65.1051 12.5924 64.3583 11.9639C52.3487 1.88095 40.3111 -2.36867 33.083 1.58818C26.1515 5.38242 24.099 16.6478 27.0164 30.745C27.3067 32.1412 27.6344 33.5302 27.9993 34.9106C26.2954 35.3685 24.6512 35.8558 23.0776 36.3745C8.99744 41.0166 0.00561523 48.2912 0.00561523 55.8369C0.00561523 63.6303 9.65875 71.4472 24.3239 76.1871C25.5128 76.5697 26.7117 76.9244 27.9193 77.2506C27.5271 78.7374 27.1789 80.2342 26.8751 81.7394C24.0938 95.592 26.2657 106.591 33.1786 110.361C40.3184 114.255 52.302 110.253 63.9702 100.608C64.9164 99.8238 65.8417 99.0175 66.7453 98.1897C67.9129 99.2549 69.1116 100.289 70.3402 101.291C81.6432 110.488 92.806 114.202 99.712 110.421C106.845 106.516 109.164 94.7005 106.154 80.3247C105.917 79.1984 105.651 78.0778 105.356 76.9637C106.198 76.7279 107.024 76.4852 107.829 76.2327C123.075 71.4565 132.995 63.7344 132.995 55.8369C132.995 48.2637 123.712 40.94 109.349 36.2645V36.2645ZM106.043 71.1338C105.315 71.3612 104.569 71.5808 103.809 71.7945C102.126 66.756 99.8544 61.3986 97.0746 55.863C99.7271 50.4595 101.911 45.1704 103.547 40.1648C104.907 40.5372 106.227 40.9297 107.5 41.3438C119.807 45.3502 127.313 51.2729 127.313 55.8369C127.313 60.6981 119.206 67.009 106.043 71.1338V71.1338ZM100.581 81.368C101.912 87.7245 102.101 93.4719 101.22 97.9652C100.428 102.003 98.8351 104.694 96.8652 105.772C92.6745 108.066 83.7118 105.085 74.0457 97.219C72.903 96.2873 71.7879 95.3258 70.7017 94.3355C74.4493 90.4602 78.1943 85.9551 81.8494 80.9515C88.2786 80.4121 94.3525 79.5299 99.8606 78.3259C100.126 79.3344 100.366 80.3488 100.581 81.368V81.368ZM45.3445 105.376C41.2499 106.743 37.9885 106.782 36.0171 105.707C31.8222 103.42 30.0783 94.588 32.457 82.7415C32.7398 81.3416 33.0635 79.9495 33.4279 78.5666C38.8753 79.7062 44.905 80.5256 51.3492 81.0198C55.0293 85.9158 58.8823 90.416 62.7655 94.3566C61.9403 95.1117 61.0955 95.8474 60.232 96.5632C55.0719 100.828 49.9014 103.854 45.3445 105.376V105.376ZM26.1618 71.1038C19.6771 69.0078 14.3217 66.2839 10.651 63.3115C7.35222 60.6407 5.68726 57.9885 5.68726 55.8369C5.68726 51.2577 12.9066 45.417 24.9478 41.4474C26.4091 40.966 27.9385 40.5116 29.5255 40.0852C31.19 45.2038 33.3729 50.5558 36.0072 55.9676C33.3386 61.4595 31.1245 66.897 29.444 72.076C28.3417 71.7774 27.2473 71.4532 26.1618 71.1038V71.1038ZM32.5921 29.7129C30.0928 17.6351 31.7526 8.52432 35.9298 6.23765C40.3787 3.80214 50.2167 7.27463 60.5863 15.9812C61.2624 16.5502 61.9277 17.1308 62.5816 17.7226C58.7177 21.646 54.8999 26.1127 51.2526 30.9798C44.998 31.528 39.0109 32.4083 33.5064 33.5878C33.1672 32.3038 32.8624 31.0119 32.5921 29.7134V29.7129ZM89.9576 43.1078C88.6574 40.9841 87.3091 38.8873 85.9134 36.8186C90.1566 37.326 94.2221 37.9995 98.0398 38.8228C96.8938 42.2967 95.4652 45.9284 93.7836 49.6519C92.5545 47.4467 91.2789 45.2648 89.9576 43.1078V43.1078ZM66.564 21.562C69.1843 24.2466 71.8088 27.2435 74.3901 30.4955C69.1537 30.2616 63.9085 30.2606 58.6719 30.4925C61.2559 27.2706 63.9027 24.2775 66.564 21.562ZM43.0203 43.1446C41.7155 45.2843 40.4637 47.4525 39.2659 49.6475C37.6119 45.9372 36.1963 42.2889 35.0404 38.7658C38.8348 37.9631 42.8811 37.3068 47.0972 36.8087C45.686 38.8901 44.3266 41.0024 43.0203 43.1441V43.1446ZM47.2183 75.2473C42.8624 74.7876 38.7553 74.1652 34.962 73.3841C36.136 69.7981 37.5828 66.0722 39.2727 62.2824C40.4752 64.4789 41.7322 66.6485 43.0426 68.7892C44.3902 70.9899 45.7855 73.1454 47.2183 75.2473ZM66.7209 90.4901C64.0279 87.7432 61.3421 84.704 58.7192 81.4353C61.2657 81.5297 63.8616 81.5778 66.5001 81.5778C69.2108 81.5778 71.8903 81.5203 74.5278 81.4093C71.9381 84.7369 69.3235 87.7805 66.7209 90.4901ZM93.8371 62.0888C95.6148 65.9204 97.113 69.6267 98.3027 73.1513C94.447 73.9834 90.2838 74.6534 85.8973 75.1511C87.3029 73.044 88.6641 70.9106 89.9799 68.7523C91.3178 66.5585 92.6038 64.3368 93.8371 62.0888V62.0888ZM85.0588 66.0683C83.0443 69.3773 80.9166 72.6236 78.679 75.8019C74.6257 76.0734 70.5635 76.2082 66.5001 76.2062C62.3613 76.2062 58.3358 76.0844 54.4594 75.8466C52.1634 72.6757 49.9951 69.4237 47.9591 66.0977H47.9596C45.9331 62.7893 44.0403 59.4094 42.2852 55.9652C44.0359 52.5201 45.9229 49.1386 47.9424 45.8277L47.9419 45.8282C49.9606 42.5164 52.1117 39.2784 54.3903 36.121C58.3452 35.8381 62.4008 35.6907 66.4996 35.6907H66.5001C70.6176 35.6907 74.6784 35.8395 78.6322 36.1245C80.8879 39.2771 83.0252 42.504 85.0401 45.7992C87.0663 49.1028 88.9784 52.4679 90.7732 55.889C88.9968 59.3452 87.0908 62.7404 85.0588 66.0683V66.0683ZM96.7785 6.07751C101.232 8.50614 102.964 18.2998 100.166 31.1429C99.9868 31.9623 99.7863 32.7969 99.5681 33.6433C94.0501 32.4388 88.0589 31.5433 81.786 30.9867C78.132 26.0661 74.3454 21.5925 70.5443 17.7196C71.5405 16.8116 72.5604 15.9271 73.6031 15.067C83.4214 6.98776 92.5976 3.79772 96.7785 6.07751V6.07751ZM66.5001 44.6075C73.0586 44.6075 78.3756 49.6352 78.3756 55.8369C78.3756 62.0387 73.0586 67.0664 66.5001 67.0664C59.9416 67.0664 54.6246 62.0387 54.6246 55.8369C54.6246 49.6352 59.9416 44.6075 66.5001 44.6075V44.6075Z" fill="#00D8FF"/>
</g>
<defs>
<clipPath id="clip0_14_43">
<rect width="133" height="112" fill="white"/>
</clipPath>
</defs>
</svg>
