<svg width="150" height="143" viewBox="0 0 150 143" fill="none" xmlns="http://www.w3.org/2000/svg">
<path d="M2.34492 101.059H7.15898V82.9344L14.6121 98.7348C15.491 100.647 16.6945 101.323 19.0559 101.323C21.4172 101.323 22.575 100.647 23.4539 98.7348L30.907 82.9344V101.059H35.7211V82.9646C35.7211 81.1994 34.9805 80.3448 33.4523 79.9046C29.7949 78.8165 27.341 79.7582 26.2301 82.1122L18.9164 97.7059L11.8348 82.111C10.7695 79.7583 8.26992 78.8165 4.6125 79.9035C3.08438 80.3448 2.34375 81.1983 2.34375 82.9635V101.059H2.34492ZM39.7254 86.305H44.5383V96.2904C44.4938 96.8322 44.7211 98.1058 47.3578 98.146C48.7031 98.1661 57.743 98.146 57.8273 98.146V86.2558H62.652C62.6742 86.2558 62.6473 102.471 62.6473 102.538C62.673 106.537 57.443 107.405 55.0312 107.472H39.8297V104.384C39.8555 104.384 55.0207 104.388 55.0582 104.383C58.1578 104.072 57.791 102.604 57.7898 102.11V100.905H47.5582C42.798 100.864 39.7652 98.8834 39.7266 96.6043C39.7242 96.3954 39.8309 86.4055 39.7254 86.305V86.305ZM66.3633 101.059H80.2055C81.8262 101.059 83.4012 100.736 84.6504 100.177C86.7328 99.2655 87.7512 98.0298 87.7512 96.4099V93.0561C87.7512 91.7323 86.5945 90.4955 84.3258 89.6733C83.1223 89.2309 81.6398 88.9974 80.2043 88.9974H74.3707C72.4266 88.9974 71.5008 88.4388 71.2699 87.2032C71.2242 87.0557 71.2242 86.9384 71.2242 86.7909V84.7018C71.2242 84.5845 71.2242 84.4661 71.2699 84.3197C71.5008 83.3779 72.0105 83.1132 73.7238 82.9657L74.1867 82.9366H87.9363V79.8778H74.4188C72.4746 79.8778 71.4563 79.9951 70.5305 80.2599C67.6605 81.1134 66.409 82.4663 66.409 84.8202V87.497C66.409 89.5571 68.8641 91.3223 72.9832 91.7345C73.4473 91.7624 73.909 91.7937 74.3719 91.7937H79.3723C79.5574 91.7937 79.7426 91.7937 79.882 91.8216C81.4102 91.9389 82.057 92.2048 82.5211 92.7333C82.64 92.8379 82.7344 92.9654 82.798 93.1073C82.8616 93.2492 82.893 93.4023 82.8902 93.5566V96.2345C82.8902 96.5574 82.6594 96.9696 82.1965 97.3227C81.7805 97.6757 81.0855 97.9114 80.1598 97.9706L79.65 97.9997H66.3633V101.059ZM117.786 95.734C117.786 98.8811 120.24 100.646 125.193 101C125.655 101.029 126.118 101.059 126.581 101.059H139.127V97.9997H126.49C123.666 97.9997 122.602 97.3227 122.602 95.7039V79.8756H117.788V95.734H117.786ZM90.8238 95.8927V84.9833C90.8238 82.2127 92.8652 80.5313 96.9012 80.0007C97.3312 79.9419 97.7651 79.9124 98.1996 79.9124H107.339C107.803 79.9124 108.22 79.9415 108.683 80.0007C112.719 80.5313 114.762 82.2116 114.762 84.9833V95.8927C114.762 98.1427 113.895 99.3448 111.896 100.129L116.64 104.21H111.049L107.212 100.908L103.35 101.141H98.1996C97.2428 101.135 96.2913 101.006 95.3707 100.758C92.3086 99.9626 90.8238 98.4287 90.8238 95.8927V95.8927ZM96.0211 95.6279C96.0211 95.7754 96.0668 95.9239 96.1137 96.1005C96.3914 97.3685 97.6453 98.0757 99.5461 98.0757H103.92L99.9023 94.618H105.493L108.996 97.6344C109.643 97.3048 110.067 96.8043 110.216 96.1597C110.262 96.0122 110.262 95.8647 110.262 95.7173V85.2515C110.262 85.1342 110.262 84.9856 110.216 84.8381C109.937 83.6584 108.684 82.9813 106.829 82.9813H99.5449C97.4121 82.9813 96.0199 83.8661 96.0199 85.2515V95.6279H96.0211ZM143.362 74.7979C140.404 74.7209 138.143 74.9834 136.209 75.7598C135.66 75.981 134.784 75.9866 134.695 76.6424C134.996 76.9452 135.043 77.3954 135.284 77.7663C135.745 78.478 136.525 79.432 137.22 79.9314C137.978 80.4777 138.761 81.0631 139.576 81.5368C141.023 82.3792 142.641 82.8596 144.036 83.7019C144.858 84.2002 145.673 84.8258 146.476 85.3878C146.873 85.6637 147.138 86.0961 147.655 86.2692V86.1899C147.384 85.8614 147.314 85.4101 147.066 85.066L145.971 84.0226C144.901 82.6685 143.544 81.481 142.099 80.4934C140.948 79.7057 138.373 78.6411 137.892 77.3641L137.808 77.2848C138.623 77.1965 139.58 76.915 140.332 76.7229C141.598 76.3989 142.729 76.4827 144.035 76.1609L145.802 75.6783V75.3588C145.143 74.713 144.67 73.8573 143.951 73.273C142.068 71.7435 140.01 70.2152 137.892 68.9394C136.718 68.2333 135.266 67.7742 134.02 67.1754C133.603 66.9732 132.867 66.8693 132.589 66.533C131.934 65.7387 131.579 64.7321 131.074 63.8059C129.996 61.8052 128.985 59.7716 128.045 57.7083C127.407 56.3174 126.99 54.9455 126.195 53.6976C122.373 47.7084 118.26 44.0932 111.888 40.5405C110.532 39.7842 108.9 39.487 107.176 39.0971L104.399 38.9362C103.835 38.7117 103.247 38.0525 102.716 37.733C100.604 36.4617 95.1902 33.6966 93.6269 37.3331C92.6402 39.6278 95.1035 41.8666 95.9836 43.0296C96.6012 43.8451 97.3934 44.759 97.8352 45.6762C98.1258 46.2795 98.175 46.8839 98.4246 47.5218C99.0352 49.0926 99.5684 50.803 100.359 52.2542C100.759 52.9893 101.201 53.7635 101.706 54.4204C102.015 54.8226 102.547 55.0014 102.63 55.6237C102.111 56.3163 102.081 57.3933 101.789 58.2703C100.474 62.224 100.97 67.1385 102.884 70.0644C103.471 70.9637 104.854 72.8898 106.754 72.1502C108.417 71.5045 108.047 69.5036 108.523 67.7373C108.63 67.3385 108.564 67.0435 108.775 66.7754V66.8559L110.29 69.7438C111.411 71.4654 113.4 73.2629 115.086 74.4773C115.961 75.1063 116.65 76.1955 117.779 76.5631V76.4815H117.696C117.476 76.1564 117.135 76.0224 116.854 75.7598C116.195 75.1443 115.463 74.3801 114.919 73.674C113.385 71.6899 112.03 69.517 110.795 67.2558C110.205 66.1766 109.693 64.9857 109.196 63.8864C109.004 63.463 109.007 62.8217 108.608 62.6038C108.062 63.4082 107.262 64.0595 106.84 65.0103C106.167 66.5296 106.08 68.383 105.831 70.3046L105.662 70.3839C104.489 70.1147 104.078 68.964 103.642 67.9775C102.54 65.4828 102.335 61.4643 103.305 58.592C103.556 57.848 104.689 55.5075 104.23 54.8204C104.011 54.1356 103.288 53.7401 102.885 53.215C102.356 52.5124 101.905 51.7595 101.538 50.9683C100.636 49.0233 100.215 46.8392 99.2672 44.8718C98.8125 43.9312 98.0461 42.9804 97.4156 42.1448C96.7184 41.2175 95.9367 40.536 95.3953 39.4166C95.2031 39.0189 94.9418 38.381 95.2266 37.9721C95.3168 37.6961 95.4469 37.5811 95.7328 37.4906C96.2203 37.132 97.5797 37.6101 98.0883 37.8112C99.4383 38.3463 100.564 38.8547 101.708 39.5764C102.257 39.9238 102.811 40.5941 103.475 40.7796H104.232C105.417 41.0388 106.745 40.8589 107.851 41.1795C109.808 41.7471 111.561 42.6285 113.153 43.5871C118.003 46.5074 121.968 50.6633 124.682 55.6214C125.118 56.4202 125.307 57.181 125.691 58.0278C126.466 59.7349 127.444 61.4922 128.215 63.1624C128.985 64.8282 129.736 66.5095 130.825 67.896C131.396 68.6244 133.607 69.0154 134.611 69.4198C135.315 69.7036 136.468 69.9996 137.135 70.3817C138.409 71.1146 139.644 71.9871 140.838 72.7892C141.435 73.1937 143.271 74.0729 143.362 74.7979V74.7979ZM105.746 44.2328C105.236 44.2248 104.727 44.2789 104.231 44.3937V44.473H104.316C104.61 45.0506 105.129 45.4215 105.493 45.9175L106.336 47.6022L106.419 47.5229C106.941 47.1732 107.179 46.6135 107.176 45.7578C106.966 45.5477 106.936 45.2852 106.755 45.0361C106.516 44.7009 106.05 44.5132 105.746 44.2328V44.2328Z" fill="#00618A"/>
</svg>
