<svg width="150" height="143" viewBox="0 0 150 143" fill="none" xmlns="http://www.w3.org/2000/svg">
<path d="M55.8012 109.618C55.8012 109.618 50.2148 112.717 59.782 113.763C71.3742 115.026 77.298 114.845 90.0691 112.543C90.0691 112.543 93.4336 114.549 98.1234 116.287C69.484 127.984 33.3094 115.609 55.8012 109.618ZM52.2996 94.3521C52.2996 94.3521 46.0324 98.775 55.6078 99.7201C67.991 100.939 77.768 101.038 94.6945 97.9326C94.6945 97.9326 97.0301 100.195 100.709 101.431C66.089 111.083 27.5297 102.19 52.2996 94.3521V94.3521Z" fill="#0074BD"/>
<path d="M81.7992 68.4512C88.8598 76.1989 79.9477 83.1646 79.9477 83.1646C79.9477 83.1646 97.8645 74.3489 89.6379 63.3043C81.9516 53.0095 76.0594 47.8961 107.96 30.2579C107.96 30.2591 57.8848 42.1783 81.7992 68.4512V68.4512Z" fill="#EA2D2E"/>
<path d="M119.675 120.912C119.675 120.912 123.811 124.163 115.119 126.676C98.5933 131.448 46.323 132.887 31.8058 126.867C26.5898 124.702 36.3749 121.7 39.4535 121.066C42.6632 120.404 44.496 120.524 44.496 120.524C38.6917 116.629 6.9808 128.177 28.391 131.49C86.7749 140.512 134.817 127.426 119.675 120.912V120.912ZM58.4906 78.5316C58.4906 78.5316 31.9054 84.5521 49.0769 86.7407C56.3285 87.6657 70.7777 87.4535 84.246 86.3765C95.2499 85.495 106.293 83.6126 106.293 83.6126C106.293 83.6126 102.416 85.1979 99.6082 87.0233C72.6058 93.7946 20.455 90.6408 35.4703 83.7187C48.164 77.8658 58.4906 78.5316 58.4906 78.5316V78.5316ZM106.182 103.944C133.629 90.3515 120.937 77.2882 112.079 79.0477C109.914 79.4779 108.942 79.8521 108.942 79.8521C108.942 79.8521 109.748 78.6467 111.286 78.1283C128.809 72.2575 142.283 95.4481 105.634 104.634C105.634 104.631 106.055 104.268 106.182 103.944V103.944Z" fill="#0074BD"/>
<path d="M89.6379 1.77295C89.6379 1.77295 104.835 16.2696 75.2204 38.5541C51.4712 56.4358 69.8051 66.629 75.2122 78.2802C61.3477 66.3564 51.1782 55.8582 57.9997 46.0884C68.0169 31.7504 95.768 24.7959 89.6379 1.77295Z" fill="#EA2D2E"/>
<path d="M61.1883 140.789C87.5273 142.395 127.985 139.895 128.943 128.013C128.943 128.013 127.102 132.517 107.173 136.091C84.689 140.127 56.9531 139.656 40.5082 137.068C40.5082 137.069 43.8773 139.728 61.1883 140.789V140.789Z" fill="#0074BD"/>
</svg>
