<svg width="150" height="142" viewBox="0 0 150 142" fill="none" xmlns="http://www.w3.org/2000/svg">
<path d="M106.309 84.6376C103.11 84.4434 101.25 82.7206 100.758 79.4978C100.627 78.6403 100.627 78.6181 100.612 73.0524L100.6 67.6652H103.431L103.441 72.876C103.452 77.5719 103.458 78.1233 103.506 78.4528C103.698 79.794 104.081 80.6959 104.735 81.3427C105.258 81.8608 105.87 82.1637 106.717 82.3245C107.115 82.4011 108.253 82.4011 108.618 82.3245C109.435 82.1668 110.185 81.7822 110.771 81.2196C111.464 80.565 111.976 79.6365 112.225 78.587L112.307 78.2331L112.316 72.9791L112.325 67.7229H115.216V84.246H112.356V82.9347C112.356 82.045 112.345 81.6278 112.323 81.6345C112.258 81.7062 112.203 81.7856 112.16 81.8708C111.639 82.7479 110.873 83.4727 109.946 83.9664C108.868 84.5266 107.787 84.7263 106.309 84.6376V84.6376ZM138.77 84.6242C137.605 84.5325 136.478 84.1845 135.48 83.6081C133.432 82.4099 132.22 80.4352 131.866 77.7195C131.743 76.7787 131.728 75.5163 131.831 74.7175C132.06 72.9314 132.802 71.1786 133.859 69.9284C134.128 69.6066 134.743 69.0264 135.082 68.7702C135.996 68.0798 137.064 67.5974 138.206 67.3602C138.87 67.2237 140.037 67.1593 140.741 67.2204C142.511 67.3757 144.13 68.1633 145.232 69.4025C146.352 70.6617 146.966 72.4211 147.046 74.5877C147.058 75.0288 147.06 75.4701 147.052 75.9112L147.036 76.6168L140.842 76.6234L134.647 76.6312V76.893C134.647 77.6884 134.851 78.5948 135.205 79.3669C135.51 80.0314 136.036 80.757 136.465 81.1086C137.346 81.8292 138.445 82.2686 139.605 82.3645C140.044 82.4033 141.159 82.3622 141.657 82.2901C143.081 82.0827 144.435 81.5546 145.526 80.7814C145.655 80.6893 145.778 80.6039 145.8 80.5917C145.832 80.5728 145.84 80.8102 145.839 81.812V83.0545L145.545 83.2264C144.281 83.9581 142.865 84.4221 141.394 84.5865C140.946 84.6387 139.304 84.662 138.769 84.6242H138.77ZM144.161 74.1351C144.161 72.8027 143.566 71.3217 142.726 70.5596C142.127 70.0156 141.361 69.6646 140.538 69.5567C140.13 69.4968 139.271 69.5201 138.841 69.6011C137.963 69.7595 137.155 70.1655 136.525 70.7659C135.83 71.4166 135.305 72.2111 134.991 73.0867C134.873 73.4085 134.737 73.9354 134.694 74.2283L134.674 74.3681H144.161V74.1351ZM60.1312 84.2082L64.8058 72.5964L69.4676 61.0212H72.4629L72.5871 61.3207C72.9668 62.2426 81.9187 84.2204 81.9187 84.2315C81.9187 84.2393 81.2015 84.2448 80.325 84.2448H78.7312L77.4422 80.9966L76.1508 77.7483H65.7609L65.7164 77.8593C65.6918 77.9192 65.1398 79.3813 64.4906 81.1064L63.3117 84.2448H61.7144C60.4511 84.2448 60.1207 84.2382 60.1312 84.2082V84.2082ZM75.2027 75.27C75.2027 75.2644 74.3355 73.039 73.2738 70.3222C71.2886 65.2435 71.1773 64.9373 71.0203 64.1219C70.9465 63.7403 70.909 63.7292 70.8656 64.0775C70.8037 64.4554 70.7136 64.8288 70.5961 65.1946C70.5433 65.3488 69.6492 67.6686 68.6086 70.351C67.9722 71.9836 67.3413 73.6181 66.716 75.2545C66.716 75.2678 68.6261 75.2789 70.9593 75.2789C73.2937 75.2789 75.2027 75.2744 75.2027 75.27V75.27ZM82.882 83.8233V83.3995L88.0582 76.6711L93.2343 69.9428L88.5468 69.9284L83.8617 69.9139L83.8535 68.789L83.8453 67.6652H97.4015V68.424L92.2254 75.189C89.3777 78.9099 87.048 81.9606 87.048 81.9673C87.048 81.9751 89.3496 81.9817 92.1621 81.9817H97.2773V84.2448H82.882V83.8233ZM120.864 84.226C120.852 84.2149 120.844 80.4841 120.844 75.9356V67.6641H123.673V69.3692C123.673 70.3078 123.684 71.0743 123.698 71.0743C123.714 71.0743 123.783 70.9212 123.852 70.7338C124.18 69.8593 124.722 69.0705 125.433 68.4318C126.044 67.8703 126.825 67.5031 127.668 67.3812C127.91 67.3446 128.115 67.3369 128.6 67.3491C129.21 67.3646 129.527 67.4067 129.898 67.521L130.015 67.5565V70.3344L129.681 70.1769C129.102 69.8992 128.454 69.7764 127.807 69.8219C127.351 69.844 127.052 69.8995 126.688 70.0282C125.948 70.2865 125.321 70.771 124.905 71.4049C124.271 72.3844 123.868 73.4817 123.722 74.6221C123.698 74.8185 123.686 76.4215 123.68 79.5799L123.671 84.2471H122.278C121.512 84.2471 120.875 84.2382 120.864 84.2271V84.226Z" fill="#0089D6"/>
<path d="M19.0495 49.4521H33.3461L18.5052 91.0792C18.3528 91.5071 18.0624 91.8789 17.6749 92.1423C17.2875 92.4056 16.8225 92.5473 16.3455 92.5472H5.21952C4.85817 92.5471 4.50204 92.4657 4.18052 92.3096C3.85901 92.1534 3.58134 91.9271 3.37046 91.6494C3.15963 91.3716 3.02175 91.0502 2.96822 90.7119C2.91469 90.3736 2.94705 90.0281 3.06263 89.704L16.8898 50.9198C17.0423 50.492 17.3327 50.1201 17.7201 49.8567C18.1076 49.5933 18.5725 49.4516 19.0495 49.4515V49.4521Z" fill="url(#paint0_linear_103_230)"/>
<path d="M39.8239 77.3734H17.1539C16.9431 77.3729 16.737 77.4326 16.5626 77.5447C16.3881 77.6567 16.2534 77.816 16.176 78.0016C16.0985 78.1872 16.082 78.3907 16.1285 78.5853C16.175 78.78 16.2824 78.9569 16.4367 79.0929L31.0043 91.965C31.4287 92.3395 31.9874 92.5476 32.5676 92.5474H45.4043L39.8239 77.3734Z" fill="#0078D4"/>
<path d="M19.0494 49.4517C18.5672 49.45 18.0971 49.5942 17.7076 49.8634C17.3182 50.1326 17.0299 50.5126 16.8848 50.948L3.07976 89.6683C2.95652 89.9935 2.91784 90.3421 2.96699 90.6846C3.01615 91.027 3.15169 91.3532 3.36216 91.6355C3.57262 91.9179 3.85182 92.1481 4.17614 92.3067C4.50046 92.4653 4.86036 92.5476 5.2254 92.5467H16.6388C17.0639 92.4749 17.4612 92.2975 17.7901 92.0327C18.1191 91.7679 18.3679 91.4251 18.5111 91.0395L21.2639 83.3588L31.0978 92.0414C31.5098 92.3642 32.0267 92.5426 32.5614 92.5467H45.3509L39.7415 77.3723L23.3899 77.3759L33.3977 49.4517H19.0494Z" fill="url(#paint1_linear_103_230)"/>
<path d="M37.3097 50.9173C37.1575 50.4901 36.8674 50.1188 36.4805 49.8559C36.0935 49.5929 35.6292 49.4515 35.1528 49.4517H19.2197C19.696 49.4517 20.1602 49.5932 20.5471 49.8561C20.9339 50.119 21.2239 50.4902 21.3763 50.9173L35.2038 89.7032C35.3195 90.0273 35.3521 90.3729 35.2987 90.7114C35.2453 91.0498 35.1075 91.3713 34.8967 91.6493C34.6859 91.9273 34.4082 92.1538 34.0866 92.3099C33.765 92.4661 33.4087 92.5475 33.0473 92.5474H48.9811C49.3424 92.5472 49.6985 92.4655 50.0199 92.3092C50.3413 92.153 50.6188 91.9265 50.8295 91.6486C51.0401 91.3707 51.1779 91.0494 51.2314 90.7111C51.285 90.3728 51.2527 90.0273 51.1372 89.7032L37.3097 50.9173Z" fill="url(#paint2_linear_103_230)"/>
<defs>
<linearGradient id="paint0_linear_103_230" x1="24.2604" y1="52.6457" x2="10.811" y2="94.6162" gradientUnits="userSpaceOnUse">
<stop stop-color="#114A8B"/>
<stop offset="1" stop-color="#0669BC"/>
</linearGradient>
<linearGradient id="paint1_linear_103_230" x1="28.8981" y1="71.9959" x2="25.5042" y2="73.2082" gradientUnits="userSpaceOnUse">
<stop stop-opacity="0.3"/>
<stop offset="0.071" stop-opacity="0.2"/>
<stop offset="0.321" stop-opacity="0.1"/>
<stop offset="0.623" stop-opacity="0.05"/>
<stop offset="1" stop-opacity="0"/>
</linearGradient>
<linearGradient id="paint2_linear_103_230" x1="27.0092" y1="51.434" x2="41.8047" y2="93.0723" gradientUnits="userSpaceOnUse">
<stop stop-color="#3CCBF4"/>
<stop offset="1" stop-color="#2892DF"/>
</linearGradient>
</defs>
</svg>
