<svg width="33" height="16" viewBox="0 0 33 16" fill="none" xmlns="http://www.w3.org/2000/svg">
<path d="M6.83716 2.20667V13.8467H15.0417V11.5833H17.7766V13.8467H25.9811V2.20667H6.83716ZM9.57201 3.5H12.3069V4.79333H9.57201V3.5ZM15.0417 3.5H17.7766V4.79333H15.0417V3.5ZM20.5114 3.5H23.2463V4.79333H20.5114V3.5ZM9.57201 6.08667H12.3069V7.38H9.57201V6.08667ZM15.0417 6.08667H17.7766V7.38H15.0417V6.08667ZM20.5114 6.08667H23.2463V7.38H20.5114V6.08667ZM9.57201 8.67333H12.3069V9.96667H9.57201V8.67333ZM15.0417 8.67333H17.7766V9.96667H15.0417V8.67333ZM20.5114 8.67333H23.2463V9.96667H20.5114V8.67333ZM9.57201 11.26H12.3069V12.5533H9.57201V11.26ZM20.5114 11.26H23.2463V12.5533H20.5114V11.26Z" fill="#A7A7A7"/>
</svg>
