<svg width="36" height="34" viewBox="0 0 36 34" fill="none" xmlns="http://www.w3.org/2000/svg">
<path fill-rule="evenodd" clip-rule="evenodd" d="M17.6827 0.56189C7.92515 0.56189 0.0219727 8.0289 0.0219727 17.2479C0.0219727 24.6315 5.07735 30.8679 12.0975 33.0788C12.9805 33.2248 13.3117 32.7243 13.3117 32.2863C13.3117 31.89 13.2896 30.5759 13.2896 29.1785C8.85233 29.9502 7.70439 28.1565 7.35117 27.2179C7.15249 26.7381 6.29153 25.2572 5.54095 24.861C4.92282 24.5481 4.03979 23.7764 5.51887 23.7555C6.90965 23.7346 7.90307 24.9652 8.23421 25.4658C9.82367 27.9896 12.3624 27.2804 13.3779 26.8424C13.5324 25.7578 13.996 25.0278 14.5038 24.6107C10.5743 24.1935 6.46814 22.7543 6.46814 16.3719C6.46814 14.5573 7.15249 13.0556 8.27836 11.8875C8.10175 11.4704 7.48363 9.76008 8.45497 7.46574C8.45497 7.46574 9.93405 7.02774 13.3117 9.17607C14.7245 8.80063 16.2257 8.61291 17.7268 8.61291C19.228 8.61291 20.7292 8.80063 22.142 9.17607C25.5196 7.00688 26.9987 7.46574 26.9987 7.46574C27.9701 9.76008 27.3519 11.4704 27.1753 11.8875C28.3012 13.0556 28.9856 14.5365 28.9856 16.3719C28.9856 22.7752 24.8574 24.1935 20.9279 24.6107C21.5681 25.1321 22.12 26.1333 22.12 27.6976C22.12 29.9293 22.0979 31.7231 22.0979 32.2863C22.0979 32.7243 22.429 33.2457 23.312 33.0788C26.818 31.9605 29.8644 29.8316 32.0227 26.9917C34.181 24.1519 35.3424 20.7441 35.3434 17.2479C35.3434 8.0289 27.4402 0.56189 17.6827 0.56189Z" fill="#A7A7A7"/>
</svg>
