<svg width="37" height="33" viewBox="0 0 37 33" fill="none" xmlns="http://www.w3.org/2000/svg">
<path fill-rule="evenodd" clip-rule="evenodd" d="M18.3687 0.10498C8.61118 0.10498 0.708008 7.57199 0.708008 16.791C0.708008 24.1746 5.76339 30.411 12.7835 32.6219C13.6666 32.7679 13.9977 32.2673 13.9977 31.8293C13.9977 31.433 13.9756 30.119 13.9756 28.7216C9.53837 29.4933 8.39042 27.6995 8.03721 26.761C7.83852 26.2812 6.97756 24.8003 6.22698 24.404C5.60886 24.0912 4.72582 23.3195 6.20491 23.2986C7.59569 23.2777 8.5891 24.5083 8.92024 25.0089C10.5097 27.5327 13.0484 26.8235 14.0639 26.3855C14.2185 25.3009 14.6821 24.5709 15.1898 24.1538C11.2603 23.7366 7.15417 22.2974 7.15417 15.915C7.15417 14.1004 7.83852 12.5987 8.9644 11.4306C8.78779 11.0135 8.16966 9.30317 9.141 7.00884C9.141 7.00884 10.6201 6.57083 13.9977 8.71916C15.4106 8.34372 16.9117 8.156 18.4129 8.156C19.914 8.156 21.4152 8.34372 22.8281 8.71916C26.2057 6.54997 27.6848 7.00884 27.6848 7.00884C28.6561 9.30317 28.038 11.0135 27.8614 11.4306C28.9872 12.5987 29.6716 14.0796 29.6716 15.915C29.6716 22.3183 25.5434 23.7366 21.6139 24.1538C22.2541 24.6752 22.806 25.6764 22.806 27.2407C22.806 29.4724 22.7839 31.2662 22.7839 31.8293C22.7839 32.2673 23.115 32.7888 23.9981 32.6219C27.504 31.5036 30.5505 29.3747 32.7087 26.5348C34.867 23.695 36.0284 20.2872 36.0295 16.791C36.0295 7.57199 28.1263 0.10498 18.3687 0.10498Z" fill="#666666"/>
</svg>
