<svg width="141" height="134" viewBox="0 0 141 134" fill="none" xmlns="http://www.w3.org/2000/svg">
<path d="M26.0057 113.904L16.1049 8.375H124.895L114.981 113.887L70.4339 125.625L26.0057 113.904Z" fill="#E44F26"/>
<path d="M70.5 116.655L106.499 107.171L114.968 17.0054H70.5V116.655Z" fill="#F1662A"/>
<path d="M70.5 56.1418H52.4784L51.2359 42.8884H70.5V29.9448H36.3516L36.6776 33.4204L40.022 69.0854H70.5V56.1418V56.1418ZM70.5 89.7549L70.4383 89.7716L55.272 85.8815L54.3026 75.5593H40.63L42.5379 95.877L70.4383 103.239L70.5 103.222V89.7549Z" fill="#EBEBEB"/>
<path d="M70.4515 56.1418V69.0854H87.2217L85.6443 85.8731L70.4515 89.7675V103.234L98.3739 95.877L98.5766 93.6911L101.776 59.6175L102.11 56.1418H70.4515V56.1418ZM70.4515 29.9448V42.8884H103.349L103.622 39.9823L104.243 33.4204L104.569 29.9448H70.4515V29.9448Z" fill="white"/>
</svg>
