<svg width="131" height="125" viewBox="0 0 131 125" fill="none" xmlns="http://www.w3.org/2000/svg">
<path d="M118.76 19.6484L95.1552 8.80468C93.8222 8.19139 92.3223 7.989 90.8633 8.22557C89.4043 8.46215 88.0586 9.12596 87.0128 10.125L9.74323 77.3437C8.80572 78.1555 8.24453 79.2893 8.18312 80.4958C8.1217 81.7023 8.56508 82.8827 9.41573 83.7773C9.51807 83.8828 9.62042 83.9844 9.73095 84.0781L16.0394 89.5469C16.8637 90.2628 17.9248 90.6805 19.0384 90.7276C20.1519 90.7747 21.2475 90.4482 22.135 89.8047L115.206 22.4609C115.909 21.9519 116.747 21.6402 117.626 21.561C118.504 21.4817 119.389 21.6381 120.179 22.0124C120.97 22.3867 121.635 22.9641 122.1 23.6796C122.566 24.3952 122.812 25.2204 122.813 26.0625V25.8008C122.813 24.5152 122.432 23.2558 121.715 22.1674C120.998 21.079 119.974 20.2059 118.76 19.6484V19.6484Z" fill="#0065A9"/>
<path d="M118.76 105.352L95.1552 116.199C93.8218 116.811 92.3223 117.012 90.8638 116.776C89.4052 116.539 88.0596 115.876 87.0128 114.879L9.74323 47.6563C8.80572 46.8445 8.24453 45.7107 8.18312 44.5042C8.1217 43.2977 8.56508 42.1173 9.41573 41.2227C9.51807 41.1172 9.62042 41.0156 9.73095 40.9219L16.0394 35.4531C16.8646 34.7342 17.9281 34.3146 19.0444 34.2675C20.1606 34.2204 21.2588 34.5488 22.1473 35.1953L115.206 102.539C115.909 103.048 116.747 103.36 117.626 103.439C118.504 103.518 119.389 103.362 120.179 102.988C120.97 102.613 121.635 102.036 122.1 101.32C122.566 100.605 122.812 99.7796 122.813 98.9375V99.2188C122.808 100.501 122.426 101.756 121.709 102.84C120.992 103.925 119.97 104.795 118.76 105.352V105.352Z" fill="#007ACC"/>
<path d="M95.1552 116.199C93.8218 116.811 92.3223 117.012 90.8637 116.776C89.4052 116.539 88.0596 115.876 87.0127 114.879C87.6006 115.433 88.3466 115.808 89.1574 115.959C89.9681 116.11 90.8074 116.029 91.5702 115.727C92.333 115.424 92.9852 114.914 93.4453 114.259C93.9053 113.605 94.1527 112.835 94.1563 112.047V12.9531C94.157 12.1613 93.9114 11.3871 93.4505 10.7286C92.9897 10.07 92.3344 9.55683 91.5677 9.25397C90.8009 8.95111 89.9572 8.87222 89.1434 9.02728C88.3296 9.18234 87.5824 9.56439 86.9963 10.125C88.0424 9.12635 89.3878 8.4625 90.8465 8.22527C92.3052 7.98804 93.8051 8.18915 95.1388 8.8008L118.739 19.6289C119.957 20.1836 120.986 21.0556 121.706 22.1442C122.427 23.2328 122.811 24.4936 122.813 25.7813V99.2188C122.813 100.505 122.432 101.766 121.714 102.855C120.997 103.944 119.971 104.818 118.756 105.375L95.1552 116.199Z" fill="#1F9CF0"/>
</svg>
