<svg width="141" height="133" viewBox="0 0 141 133" fill="none" xmlns="http://www.w3.org/2000/svg">
<path d="M26.0057 113.054L16.1093 8.3125H124.891L114.981 113.038L70.4339 124.688L26.0057 113.054Z" fill="#1572B6"/>
<path d="M70.5 115.785L106.499 106.371L114.968 16.8785H70.5V115.785Z" fill="#33A9DC"/>
<path d="M70.5 54.8251H88.5216L89.7641 41.6706H70.5V28.8236H104.648L104.322 32.2691L100.978 67.6721H70.5V54.8251V54.8251Z" fill="white"/>
<path d="M70.5837 88.1873L70.522 88.2039L55.3557 84.3386L54.3863 74.0934H40.7137L42.6217 94.2637L70.5176 101.57L70.5837 101.554V88.1873V88.1873Z" fill="#EBEBEB"/>
<path d="M87.3627 67.1276L85.7236 84.3303L70.5353 88.1956V101.562L98.4533 94.2637L98.6604 92.0942L101.027 67.1276H87.3627V67.1276Z" fill="white"/>
<path d="M70.5485 28.8236V41.6706H37.6514L37.3783 38.782L36.757 32.2691L36.4309 28.8236H70.5485V28.8236ZM70.5 54.8251V67.6721H55.5232L55.25 64.7835L54.6331 58.2706L54.3071 54.8251H70.5V54.8251Z" fill="#EBEBEB"/>
</svg>
