<svg width="141" height="133" viewBox="0 0 141 133" fill="none" xmlns="http://www.w3.org/2000/svg">
<path d="M8.8125 8.3125H132.188V124.688H8.8125V8.3125Z" fill="#F5DE19"/>
<path d="M91.6897 99.2305C92.7409 101.245 94.3741 102.937 96.401 104.114C98.4279 105.291 100.766 105.903 103.146 105.88C107.949 105.88 111.02 103.615 111.02 100.477C111.02 96.7367 107.865 95.3984 102.578 93.2164L99.6782 92.0443C91.3064 88.6819 85.7545 84.4716 85.7545 75.5689C85.7545 67.3687 92.3639 61.1218 102.732 61.1218C106.088 60.8932 109.441 61.6017 112.374 63.1591C115.306 64.7164 117.687 67.0536 119.22 69.879L110.156 75.3445C109.566 73.9435 108.538 72.7449 107.209 71.9076C105.88 71.0703 104.312 70.6339 102.714 70.6563C102.017 70.5904 101.313 70.6623 100.647 70.8673C99.9804 71.0724 99.3669 71.406 98.845 71.8471C98.3231 72.2882 97.9043 72.8269 97.6153 73.4291C97.3264 74.0312 97.1736 74.6836 97.1667 75.3445C97.1667 78.6238 99.3213 79.9538 104.296 81.9945L107.195 83.1666C117.048 87.1524 122.617 91.2131 122.617 100.344C122.617 110.191 114.417 115.585 103.406 115.585C99.1156 115.843 94.8378 114.924 91.0888 112.94C87.3397 110.955 84.2797 107.99 82.2779 104.401L91.6897 99.2305ZM50.7336 100.178C52.5534 103.225 54.2101 105.802 58.1934 105.802C62.0004 105.802 64.4062 104.397 64.4062 98.9312V61.7453H75.999V99.0767C75.999 110.398 68.949 115.552 58.6869 115.552C55.0594 115.739 51.4569 114.886 48.3528 113.106C45.2488 111.326 42.7885 108.701 41.2954 105.577L50.7336 100.178Z" fill="black"/>
</svg>
